# xmcd
#
# Track frame offsets:
#	150
#	21676
#	45795
#	68410
#	105341
#	143828
#	203373
#	241399
#
# Disc length: 3669 seconds
#
# Revision: 1
# Processed by: cddbd v1.5.1PL2 Copyright (c) Steve Scherf et al.
# Submitted via: EasyCDDAExtractor 9.0.0.1
#
DISCID=5c0e5308
DTITLE=Black Sabbath - Westfalenhalle Dortmund 09-06-05 Disc 1 Source 3
DYEAR=2005
DGENRE=Hard Rock
TTITLE0=Intro 
TTITLE1=NIB
TTITLE2=After Forever 
TTITLE3=War Pigs 
TTITLE4=Dirty Women 
TTITLE5=Medley (Fairies Wear Boots - Symptom Of The Universe - Sweet Leaf - El
TTITLE5=ectric Funeral)
TTITLE6=Iron Man 
TTITLE7=Into The Void 
EXTD=
EXTT0=
EXTT1=
EXTT2=
EXTT3=
EXTT4=
EXTT5=
EXTT6=
EXTT7=
PLAYORDER=
